<?xml version="1.0" encoding="UTF-8" standalone="no"?>
<!-- Created with Inkscape (http://www.inkscape.org/) -->

<svg
   xmlns:dc="http://purl.org/dc/elements/1.1/"
   xmlns:cc="http://creativecommons.org/ns#"
   xmlns:rdf="http://www.w3.org/1999/02/22-rdf-syntax-ns#"
   xmlns:svg="http://www.w3.org/2000/svg"
   xmlns="http://www.w3.org/2000/svg"
   xmlns:sodipodi="http://sodipodi.sourceforge.net/DTD/sodipodi-0.dtd"
   xmlns:inkscape="http://www.inkscape.org/namespaces/inkscape"
   version="1.1"
   id="svg1485"
   width="512"
   height="512"
   viewBox="0 0 512 512"
   sodipodi:docname="LibrariumLogo_dark.svg"
   inkscape:version="0.92.1 r"
   inkscape:export-filename="/Users/logie/Desktop/Librarium-C5.png"
   inkscape:export-xdpi="187.5"
   inkscape:export-ydpi="187.5">
  <metadata
     id="metadata1491">
    <rdf:RDF>
      <cc:Work
         rdf:about="">
        <dc:format>image/svg+xml</dc:format>
        <dc:type
           rdf:resource="http://purl.org/dc/dcmitype/StillImage" />
        <dc:title />
      </cc:Work>
    </rdf:RDF>
  </metadata>
  <defs
     id="defs1489" />
  <sodipodi:namedview
     pagecolor="#ffffff"
     bordercolor="#666666"
     borderopacity="1"
     objecttolerance="10"
     gridtolerance="10"
     guidetolerance="10"
     inkscape:pageopacity="0"
     inkscape:pageshadow="2"
     inkscape:window-width="1916"
     inkscape:window-height="1156"
     id="namedview1487"
     showgrid="false"
     inkscape:object-paths="true"
     inkscape:snap-smooth-nodes="true"
     inkscape:snap-global="false"
     inkscape:zoom="0.56391766"
     inkscape:cx="-270.7043"
     inkscape:cy="110.7045"
     inkscape:window-x="35"
     inkscape:window-y="47"
     inkscape:window-maximized="0"
     inkscape:current-layer="svg1485"
     inkscape:pagecheckerboard="true"
     borderlayer="true" />
  <rect
     style="opacity:1;fill:#1a1a1a;fill-opacity:1;stroke:none;stroke-width:2;stroke-linecap:round;stroke-linejoin:round;stroke-miterlimit:4;stroke-dasharray:none;stroke-opacity:1"
     id="rect2082"
     width="628.1153"
     height="580.13428"
     x="-878.84741"
     y="-128.91365"
     ry="18.538099"
     rx="18.538099" />
  <g
     id="g4505"
     transform="translate(0,11.872157)">
    <g
       aria-label="Librarium."
       style="font-style:normal;font-weight:normal;font-size:61.45117188px;font-family:sans-serif;fill:#ffffff;fill-opacity:1;stroke:none;stroke-width:0.99999994"
       id="text2075">
      <path
         d="m 93.117553,412.22071 h -4.860884 q -1.020185,0 -1.470267,-0.45009 -0.420077,-0.45008 -0.420077,-1.59028 0,-1.14021 0.420077,-1.59029 0.450082,-0.45009 1.470267,-0.45009 h 16.623021 q 1.02019,0 1.44026,0.45009 0.45008,0.45008 0.45008,1.59029 0,1.1402 -0.45008,1.59028 -0.42007,0.45009 -1.44026,0.45009 h -7.261319 v 27.45499 h 14.852699 v -9.8718 q 0,-1.05019 0.48009,-1.50027 0.51009,-0.45008 1.77032,-0.45008 1.26023,0 1.74032,0.45008 0.51009,0.45008 0.51009,1.50027 v 11.91217 q 0,1.14021 -0.45008,1.59029 -0.42008,0.45008 -1.44026,0.45008 H 88.256669 q -1.020185,0 -1.470267,-0.45008 -0.420077,-0.45008 -0.420077,-1.59029 0,-1.14021 0.420077,-1.59029 0.450082,-0.45008 1.470267,-0.45008 h 4.860884 z"
         style="font-style:normal;font-variant:normal;font-weight:normal;font-stretch:normal;font-family:'Courier Prime';-inkscape-font-specification:'Courier Prime';fill:#ffffff;fill-opacity:1;stroke-width:0.30669776"
         id="path4507" />
      <path
         d="m 137.70566,420.11214 h -7.59138 q -1.02019,0 -1.47027,-0.45008 -0.42007,-0.45008 -0.42007,-1.59029 0,-1.14021 0.42007,-1.59029 0.45008,-0.45008 1.47027,-0.45008 h 10.20185 q 1.02019,0 1.44027,0.45008 0.45008,0.45008 0.45008,1.59029 v 21.60393 h 9.63175 q 1.02018,0 1.44026,0.45008 0.45008,0.45008 0.45008,1.59029 0,1.14021 -0.45008,1.59029 -0.42008,0.45008 -1.44026,0.45008 h -23.52428 q -1.02018,0 -1.47027,-0.45008 -0.42007,-0.45008 -0.42007,-1.59029 0,-1.14021 0.42007,-1.59029 0.45009,-0.45008 1.47027,-0.45008 h 9.39171 z m 4.50082,-11.40207 q 0,1.05019 -0.57011,1.50027 -0.5701,0.45008 -2.28041,0.45008 -1.71031,0 -2.28042,-0.45008 -0.5701,-0.45008 -0.5701,-1.50027 v -3.90071 q 0,-1.05019 0.5701,-1.50027 0.57011,-0.45009 2.28042,-0.45009 1.71031,0 2.28041,0.45009 0.57011,0.45008 0.57011,1.50027 z"
         style="font-style:normal;font-variant:normal;font-weight:normal;font-stretch:normal;font-family:'Courier Prime';-inkscape-font-specification:'Courier Prime';fill:#ffffff;fill-opacity:1;stroke-width:0.30669776"
         id="path4509" />
      <path
         d="m 163.72039,408.47002 h -3.06056 q -1.02018,0 -1.47027,-0.45008 -0.42007,-0.45008 -0.42007,-1.59029 0,-1.1402 0.42007,-1.59029 0.45009,-0.45008 1.47027,-0.45008 h 5.67103 q 1.02019,0 1.44026,0.45008 0.45009,0.45009 0.45009,1.59029 v 13.89253 q 1.80032,-2.31042 4.14075,-3.63066 2.37043,-1.32024 5.37098,-1.32024 2.7905,0 5.16093,0.99018 2.37044,0.99018 4.08075,2.88052 1.74031,1.86034 2.73049,4.56083 0.99018,2.70049 0.99018,6.09111 0,3.39062 -0.99018,6.09111 -0.99018,2.70049 -2.73049,4.59083 -1.71031,1.86034 -4.08075,2.85052 -2.37043,0.99018 -5.16093,0.99018 -3.00055,0 -5.491,-1.32024 -2.46045,-1.35025 -4.32079,-3.78069 v 2.40044 q 0,1.14021 -0.45008,1.59029 -0.42008,0.45008 -1.44026,0.45008 h -4.77087 q -1.02018,0 -1.47027,-0.45008 -0.42007,-0.45008 -0.42007,-1.59029 0,-1.14021 0.42007,-1.59029 0.45009,-0.45008 1.47027,-0.45008 h 2.46045 z m 4.50082,21.4239 q 0,2.40044 0.69012,4.26077 0.69013,1.86034 1.92035,3.18058 1.23022,1.29024 2.91053,1.98036 1.71031,0.66012 3.69067,0.66012 2.04037,0 3.63066,-0.75013 1.59029,-0.75014 2.67049,-2.07038 1.08019,-1.35025 1.6503,-3.18058 0.5701,-1.86034 0.5701,-4.08074 0,-2.1904 -0.5701,-4.05074 -0.57011,-1.86034 -1.6503,-3.18058 -1.0802,-1.35024 -2.67049,-2.10038 -1.59029,-0.75013 -3.63066,-0.75013 -1.98036,0 -3.69067,0.69012 -1.68031,0.66012 -2.91053,1.98036 -1.23022,1.29024 -1.92035,3.18058 -0.69012,1.86034 -0.69012,4.23077 z"
         style="font-style:normal;font-variant:normal;font-weight:normal;font-stretch:normal;font-family:'Courier Prime';-inkscape-font-specification:'Courier Prime';fill:#ffffff;fill-opacity:1;stroke-width:0.30669776"
         id="path4511" />
      <path
         d="m 205.51799,420.11214 h -3.81069 q -1.02019,0 -1.47027,-0.45008 -0.42008,-0.45008 -0.42008,-1.59029 0,-1.14021 0.42008,-1.59029 0.45008,-0.45008 1.47027,-0.45008 h 6.12111 q 1.02019,0 1.44026,0.45008 0.45008,0.45008 0.45008,1.59029 v 6.0611 q 1.11021,-2.01036 2.52046,-3.63066 1.44026,-1.62029 3.06056,-2.7605 1.62029,-1.14021 3.36061,-1.74032 1.74032,-0.63011 3.45063,-0.63011 2.34042,0 4.38079,1.20022 0.87016,0.51009 1.11021,1.26023 0.24004,0.75013 -0.18004,1.86033 -0.42007,1.0802 -1.08019,1.53028 -0.63012,0.45008 -1.50028,-0.06 -1.50027,-0.81015 -3.15057,-0.81015 -1.35024,0 -2.7605,0.5101 -1.38025,0.48008 -2.70049,1.38025 -1.29024,0.87016 -2.43044,2.13039 -1.11021,1.23022 -1.98036,2.73049 -0.84016,1.50027 -1.32024,3.21059 -0.48009,1.71031 -0.48009,3.54064 v 5.82106 h 10.11184 q 1.02018,0 1.44026,0.45008 0.45008,0.45008 0.45008,1.59029 0,1.14021 -0.45008,1.59029 -0.42008,0.45008 -1.44026,0.45008 h -19.32352 q -1.02018,0 -1.47026,-0.45008 -0.42008,-0.45008 -0.42008,-1.59029 0,-1.14021 0.42008,-1.59029 0.45008,-0.45008 1.47026,-0.45008 h 4.71086 z"
         style="font-style:normal;font-variant:normal;font-weight:normal;font-stretch:normal;font-family:'Courier Prime';-inkscape-font-specification:'Courier Prime';fill:#ffffff;fill-opacity:1;stroke-width:0.30669776"
         id="path4513" />
      <path
         d="m 264.20866,439.6757 q 1.02018,0 1.44026,0.45008 0.45008,0.45008 0.45008,1.59029 0,1.14021 -0.45008,1.59029 -0.42008,0.45008 -1.44026,0.45008 h -1.92035 q -0.93017,0 -1.77032,-0.21004 -0.84016,-0.24004 -1.53028,-0.72013 -0.66012,-0.48009 -1.17021,-1.20022 -0.48009,-0.72013 -0.69013,-1.71031 -2.37043,2.07038 -5.22095,3.3006 -2.85052,1.20022 -6.18112,1.20022 -2.25041,0 -4.14076,-0.60011 -1.89034,-0.5701 -3.27059,-1.68031 -1.38025,-1.1402 -2.16039,-2.7605 -0.75014,-1.62029 -0.75014,-3.72067 0,-2.52046 0.96018,-4.29078 0.99018,-1.77033 2.64048,-2.85052 1.6803,-1.1102 3.8707,-1.6203 2.2204,-0.51009 4.68085,-0.51009 2.43044,0 4.71086,0.39007 2.28041,0.39007 4.4108,1.14021 v -2.55046 q 0,-2.91053 -1.41026,-4.26078 -1.38025,-1.38025 -4.77087,-1.38025 -2.43044,0 -4.89088,0.66012 -2.43045,0.63011 -4.32079,1.98036 -0.69013,0.51009 -1.41026,0.36007 -0.72013,-0.15003 -1.38025,-1.0802 -0.66012,-0.93017 -0.5401,-1.6503 0.15003,-0.75014 0.84016,-1.26023 1.17021,-0.87016 2.58047,-1.50027 1.41025,-0.66012 2.91053,-1.05019 1.53027,-0.42008 3.09056,-0.60011 1.59029,-0.21004 3.12056,-0.21004 5.37098,0 8.01146,2.52046 2.67049,2.52046 2.67049,7.47136 v 11.94217 q 0,2.37043 1.98036,2.37043 z m -7.53137,-7.7114 q -2.07038,-0.69013 -4.4108,-1.02019 -2.34043,-0.33006 -4.68085,-0.33006 -1.6203,0 -3.00055,0.27005 -1.35025,0.27005 -2.34043,0.87016 -0.99018,0.5701 -1.56028,1.53028 -0.5401,0.93016 -0.5401,2.28041 0,2.1904 1.50028,3.42062 1.53027,1.20022 4.26077,1.20022 3.21058,0 5.88107,-1.32024 2.67048,-1.35025 4.89089,-3.63066 z"
         style="font-style:normal;font-variant:normal;font-weight:normal;font-stretch:normal;font-family:'Courier Prime';-inkscape-font-specification:'Courier Prime';fill:#ffffff;fill-opacity:1;stroke-width:0.30669776"
         id="path4515" />
      <path
         d="m 279.21138,420.11214 h -3.81069 q -1.02019,0 -1.47027,-0.45008 -0.42008,-0.45008 -0.42008,-1.59029 0,-1.14021 0.42008,-1.59029 0.45008,-0.45008 1.47027,-0.45008 h 6.12111 q 1.02019,0 1.44026,0.45008 0.45008,0.45008 0.45008,1.59029 v 6.0611 q 1.11021,-2.01036 2.52046,-3.63066 1.44026,-1.62029 3.06056,-2.7605 1.62029,-1.14021 3.36061,-1.74032 1.74032,-0.63011 3.45063,-0.63011 2.34042,0 4.38079,1.20022 0.87016,0.51009 1.11021,1.26023 0.24004,0.75013 -0.18004,1.86033 -0.42007,1.0802 -1.08019,1.53028 -0.63012,0.45008 -1.50028,-0.06 -1.50027,-0.81015 -3.15057,-0.81015 -1.35024,0 -2.7605,0.5101 -1.38025,0.48008 -2.70049,1.38025 -1.29024,0.87016 -2.43044,2.13039 -1.11021,1.23022 -1.98036,2.73049 -0.84016,1.50027 -1.32024,3.21059 -0.48009,1.71031 -0.48009,3.54064 v 5.82106 h 10.11184 q 1.02018,0 1.44026,0.45008 0.45008,0.45008 0.45008,1.59029 0,1.14021 -0.45008,1.59029 -0.42008,0.45008 -1.44026,0.45008 h -19.32352 q -1.02018,0 -1.47026,-0.45008 -0.42008,-0.45008 -0.42008,-1.59029 0,-1.14021 0.42008,-1.59029 0.45008,-0.45008 1.47026,-0.45008 h 4.71086 z"
         style="font-style:normal;font-variant:normal;font-weight:normal;font-stretch:normal;font-family:'Courier Prime';-inkscape-font-specification:'Courier Prime';fill:#ffffff;fill-opacity:1;stroke-width:0.30669776"
         id="path4517" />
      <path
         d="m 321.93916,420.11214 h -7.59138 q -1.02019,0 -1.47027,-0.45008 -0.42007,-0.45008 -0.42007,-1.59029 0,-1.14021 0.42007,-1.59029 0.45008,-0.45008 1.47027,-0.45008 h 10.20185 q 1.02019,0 1.44027,0.45008 0.45008,0.45008 0.45008,1.59029 v 21.60393 h 9.63175 q 1.02019,0 1.44026,0.45008 0.45008,0.45008 0.45008,1.59029 0,1.14021 -0.45008,1.59029 -0.42007,0.45008 -1.44026,0.45008 h -23.52428 q -1.02018,0 -1.47026,-0.45008 -0.42008,-0.45008 -0.42008,-1.59029 0,-1.14021 0.42008,-1.59029 0.45008,-0.45008 1.47026,-0.45008 h 9.39171 z m 4.50082,-11.40207 q 0,1.05019 -0.57011,1.50027 -0.5701,0.45008 -2.28041,0.45008 -1.71031,0 -2.28041,-0.45008 -0.57011,-0.45008 -0.57011,-1.50027 v -3.90071 q 0,-1.05019 0.57011,-1.50027 0.5701,-0.45009 2.28041,-0.45009 1.71031,0 2.28041,0.45009 0.57011,0.45008 0.57011,1.50027 z"
         style="font-style:normal;font-variant:normal;font-weight:normal;font-stretch:normal;font-family:'Courier Prime';-inkscape-font-specification:'Courier Prime';fill:#ffffff;fill-opacity:1;stroke-width:0.30669776"
         id="path4519" />
      <path
         d="m 374.32867,439.6757 q 1.02018,0 1.44026,0.45008 0.45008,0.45008 0.45008,1.59029 0,1.14021 -0.45008,1.59029 -0.42008,0.45008 -1.44026,0.45008 h -4.77087 q -1.02019,0 -1.47027,-0.42008 -0.42008,-0.45008 -0.42008,-1.59029 v -3.63066 q -1.98036,3.09057 -4.62084,4.71086 -2.64048,1.59029 -5.73104,1.59029 -2.07037,0 -3.72067,-0.69013 -1.6503,-0.69012 -2.82052,-1.95035 -1.1402,-1.26023 -1.77032,-3.06056 -0.60011,-1.83033 -0.60011,-4.08074 v -14.52264 h -2.46044 q -1.02019,0 -1.47027,-0.45008 -0.42008,-0.45008 -0.42008,-1.59029 0,-1.14021 0.42008,-1.59029 0.45008,-0.45008 1.47027,-0.45008 h 5.07092 q 1.02018,0 1.44026,0.45008 0.45008,0.45008 0.45008,1.59029 v 16.11293 q 0,1.29023 0.30006,2.37043 0.30005,1.05019 0.90016,1.83033 0.60011,0.75014 1.50027,1.17022 0.93017,0.42007 2.16039,0.42007 1.92035,0 3.66067,-0.84015 1.74032,-0.84015 3.06056,-2.34043 1.32024,-1.50027 2.10038,-3.57065 0.78014,-2.07037 0.78014,-4.53082 v -8.58156 h -4.26077 q -1.02019,0 -1.47027,-0.45008 -0.42008,-0.45008 -0.42008,-1.59029 0,-1.14021 0.42008,-1.59029 0.45008,-0.45008 1.47027,-0.45008 h 6.87124 q 1.02019,0 1.44027,0.45008 0.45008,0.45008 0.45008,1.59029 v 21.60393 z"
         style="font-style:normal;font-variant:normal;font-weight:normal;font-stretch:normal;font-family:'Courier Prime';-inkscape-font-specification:'Courier Prime';fill:#ffffff;fill-opacity:1;stroke-width:0.30669776"
         id="path4521" />
      <path
         d="m 386.87096,421.04231 q 1.32024,-2.91053 3.12056,-4.29078 1.80033,-1.38025 3.87071,-1.38025 0.99018,0 1.86034,0.33006 0.90016,0.33006 1.6503,1.02018 0.75013,0.66012 1.29023,1.68031 0.5701,1.02019 0.84015,2.40044 1.35025,-2.76051 3.09057,-4.08075 1.74031,-1.35024 3.81069,-1.35024 1.29023,0 2.40043,0.48009 1.14021,0.48008 1.98037,1.47026 0.84015,0.99018 1.32024,2.52046 0.51009,1.50027 0.51009,3.57065 v 16.26296 h 1.86034 q 1.02018,0 1.44026,0.45008 0.45008,0.45008 0.45008,1.59029 0,1.14021 -0.45008,1.59029 -0.42008,0.45008 -1.44026,0.45008 h -4.47082 q -1.02018,0 -1.47026,-0.45008 -0.42008,-0.45008 -0.42008,-1.59029 v -17.76323 q 0,-2.01037 -0.66012,-3.06056 -0.66012,-1.08019 -2.1904,-1.08019 -1.0802,0 -2.04037,0.75013 -0.93017,0.75014 -1.6503,2.10038 -0.69013,1.35025 -1.1102,3.24059 -0.42008,1.86034 -0.42008,4.14076 v 9.63175 h 1.71031 q 1.02019,0 1.44026,0.45008 0.45009,0.45008 0.45009,1.59029 0,1.14021 -0.45009,1.59029 -0.42007,0.45008 -1.44026,0.45008 h -4.32078 q -1.02019,0 -1.47027,-0.45008 -0.42008,-0.45008 -0.42008,-1.59029 v -17.76323 q 0,-2.01037 -0.66012,-3.06056 -0.66012,-1.08019 -2.19039,-1.08019 -1.0802,0 -2.04038,0.75013 -0.93016,0.75014 -1.6503,2.10038 -0.69012,1.35025 -1.1102,3.24059 -0.42007,1.86034 -0.42007,4.14076 v 9.63175 h 1.56028 q 1.02019,0 1.44026,0.45008 0.45008,0.45008 0.45008,1.59029 0,1.14021 -0.45008,1.59029 -0.42007,0.45008 -1.44026,0.45008 h -8.52155 q -1.02018,0 -1.47027,-0.45008 -0.42007,-0.45008 -0.42007,-1.59029 0,-1.14021 0.42007,-1.59029 0.45009,-0.45008 1.47027,-0.45008 h 2.46045 v -19.56356 h -2.46045 q -1.02018,0 -1.47027,-0.45008 -0.42007,-0.45008 -0.42007,-1.59029 0,-1.14021 0.42007,-1.59029 0.45009,-0.45008 1.47027,-0.45008 h 4.47081 q 1.02019,0 1.44027,0.45008 0.45008,0.45008 0.45008,1.59029 z"
         style="font-style:normal;font-variant:normal;font-weight:normal;font-stretch:normal;font-family:'Courier Prime';-inkscape-font-specification:'Courier Prime';fill:#ffffff;fill-opacity:1;stroke-width:0.30669776"
         id="path4523" />
      <path
         d="m 428.93862,439.34564 q 0,-1.05019 0.39007,-1.95036 0.42007,-0.93017 1.1102,-1.62029 0.69012,-0.69013 1.59029,-1.0802 0.93017,-0.42007 1.98036,-0.42007 1.05019,0 1.95035,0.42007 0.93017,0.39007 1.6203,1.0802 0.69012,0.69012 1.08019,1.62029 0.42008,0.90017 0.42008,1.95036 0,1.05019 -0.42008,1.98036 -0.39007,0.90016 -1.08019,1.59029 -0.69013,0.69012 -1.6203,1.08019 -0.90016,0.42008 -1.95035,0.42008 -1.05019,0 -1.98036,-0.42008 -0.90017,-0.39007 -1.59029,-1.08019 -0.69013,-0.69013 -1.1102,-1.59029 -0.39007,-0.93017 -0.39007,-1.98036 z"
         style="font-style:normal;font-variant:normal;font-weight:normal;font-stretch:normal;font-family:'Courier Prime';-inkscape-font-specification:'Courier Prime';fill:#ffffff;fill-opacity:1;stroke-width:0.30669776"
         id="path4525" />
    </g>
    <g
       style="stroke-width:1.13699722"
       transform="matrix(0.87950962,0,0,0.87950962,49.210749,8.6683365)"
       id="g4495">
      <circle
         style="opacity:1;fill:#1a1a1a;fill-opacity:1;stroke:none;stroke-width:6.2534852;stroke-linecap:round;stroke-linejoin:round;stroke-miterlimit:4;stroke-dasharray:none;stroke-opacity:1"
         id="path4488"
         cx="235.1188"
         cy="221.90865"
         r="181.91956" />
      <g
         style="stroke-width:1.13699722"
         id="g6917"
         transform="translate(3.0291613,6.1363326)">
        <path
           sodipodi:nodetypes="cccccccccc"
           inkscape:connector-curvature="0"
           id="path4554"
           d="m 201.35164,288.11683 c -9.57252,1.58533 -24.80589,5.96519 -43.65591,15.62513 -5.41712,5.41224 -5.91067,9.25736 0.51198,10.90241 l 0.17315,2.30349 184.21959,0.97486 c -0.33392,-2.79667 -2.04691,-6.85414 -4.98349,-8.83476 l -3.79779,0.0701 3.18937,-0.11046 c -41.04395,-2.69072 -57.25932,-17.95913 -93.24241,-21.64452 -15.62842,-1.22096 -29.17661,-1.43754 -42.41449,0.71374 z"
           style="fill:#fef1da;fill-opacity:1;stroke:none;stroke-width:1.13699722px;stroke-linecap:butt;stroke-linejoin:miter;stroke-opacity:1" />
        <path
           sodipodi:nodetypes="ccccc"
           inkscape:connector-curvature="0"
           id="path4587"
           d="m 166.13844,113.78445 c -8.5212,72.80211 19.28579,172.36327 1.40707,187.42394 l -14.91511,6.75402 -1.96992,-195.58505 c 6.23256,-1.14083 10.66374,0.4204 15.47796,1.40709 z"
           style="fill:#fef1da;fill-opacity:1;stroke:none;stroke-width:1.13699722px;stroke-linecap:butt;stroke-linejoin:miter;stroke-opacity:1" />
        <path
           sodipodi:nodetypes="cccc"
           inkscape:connector-curvature="0"
           id="path4630"
           d="m 147.66427,110.97027 5.06552,197.27355 c 2.84814,7.04504 6.25543,9.61701 9.8496,10.69386 l 181.79559,1.6885"
           style="fill:none;stroke:#63411c;stroke-width:8.41377926;stroke-linecap:round;stroke-linejoin:miter;stroke-miterlimit:4;stroke-dasharray:none;stroke-opacity:1" />
      </g>
    </g>
  </g>
</svg>
