<?xml version="1.0" encoding="UTF-8" standalone="no"?>
<svg
   xmlns:dc="http://purl.org/dc/elements/1.1/"
   xmlns:cc="http://creativecommons.org/ns#"
   xmlns:rdf="http://www.w3.org/1999/02/22-rdf-syntax-ns#"
   xmlns:svg="http://www.w3.org/2000/svg"
   xmlns="http://www.w3.org/2000/svg"
   xmlns:sodipodi="http://sodipodi.sourceforge.net/DTD/sodipodi-0.dtd"
   xmlns:inkscape="http://www.inkscape.org/namespaces/inkscape"
   fill="#000000"
   height="48"
   viewBox="0 0 24 24"
   width="48"
   version="1.1"
   id="svg4489"
   sodipodi:docname="ic_account_circle_black_48px.svg"
   inkscape:version="0.92.1 r15371">
  <metadata
     id="metadata4495">
    <rdf:RDF>
      <cc:Work
         rdf:about="">
        <dc:format>image/svg+xml</dc:format>
        <dc:type
           rdf:resource="http://purl.org/dc/dcmitype/StillImage" />
      </cc:Work>
    </rdf:RDF>
  </metadata>
  <defs
     id="defs4493" />
  <sodipodi:namedview
     pagecolor="#ffffff"
     bordercolor="#666666"
     borderopacity="1"
     objecttolerance="10"
     gridtolerance="10"
     guidetolerance="10"
     inkscape:pageopacity="0"
     inkscape:pageshadow="2"
     inkscape:window-width="640"
     inkscape:window-height="480"
     id="namedview4491"
     showgrid="false"
     inkscape:zoom="13.770833"
     inkscape:cx="24"
     inkscape:cy="24"
     inkscape:current-layer="svg4489" />
  <g
     id="g4515"
     transform="matrix(1.2,0,0,1.2,-2.4,-2.4)"
     style="stroke-width:0.83333331">
    <path
       transform="scale(0.5)"
       sodipodi:nodetypes="ccccccccc"
       inkscape:connector-curvature="0"
       id="rect4497"
       d="M 4,4 V 24 44 H 24 44 V 24 4 H 24 Z"
       style="opacity:1;fill:#757575;fill-opacity:1;stroke:none;stroke-width:2.50000024;stroke-linecap:butt;stroke-linejoin:miter;stroke-miterlimit:4;stroke-dasharray:none;stroke-opacity:1" />
    <path
       id="rect4508"
       transform="scale(0.5)"
       d="m 24,10 c -3.32,0 -6,2.68 -6,6 0,3.32 2.68,6 6,6 3.32,0 6,-2.68 6,-6 0,-3.32 -2.68,-6 -6,-6 z m 0,15.800781 c -4,0 -11.94,2.180156 -12,6.160157 2.58,3.879998 7,6.439453 12,6.439453 5,0 9.42,-2.559455 12,-6.439453 -0.06,-3.980001 -8.02,-6.160157 -12,-6.160157 z"
       style="opacity:1;fill:#ffffff;fill-opacity:1;stroke:none;stroke-width:2.5;stroke-linecap:butt;stroke-linejoin:miter;stroke-miterlimit:4;stroke-dasharray:none;stroke-opacity:1"
       inkscape:connector-curvature="0" />
  </g>
  <path
     d="M0 0h24v24H0z"
     fill="none"
     id="path4487" />
</svg>
